#N canvas 1082 56 1017 1599 10;
#X obj 11 278 adc~;
#X obj 25 557 vu 15 120 raw empty -1 -8 0 10 -66577 -1 1 0;
#X obj 33 484 env~;
#X obj 24 516 - 100;
#X obj 42 914 colorgrid colorgrid1 256 0 256 50 0 50 0 1 1 10 10 226
947;
#X text 485 575 bonk~;
#X text 474 591 gcanvas;
#X text 474 606 highpass;
#X text 475 621 lowpass;
#X text 477 635 color.rgbset;
#X text 478 649 spectrogram~;
#X text 70 861 left LED;
#X obj 675 566 colorgrid colorgrid1 256 0 256 50 0 50 0 1 1 10 10 784
583;
#X obj 123 783 color.hsl2rgb;
#X floatatom 88 694 5 0 1 0 - - -;
#X floatatom 148 691 5 0 1 0 - - -;
#X floatatom 189 705 5 0 1 0 - - -;
#X obj 124 752 pack f f f;
#X obj 91 724 bng 15 250 50 0 empty empty empty 17 7 0 10 -262144 -1
-1;
#X floatatom 280 989 5 0 0 0 - - -;
#X floatatom 162 986 5 0 0 0 - - -;
#X floatatom 41 990 5 0 0 0 - - -;
#X obj 124 850 bng 50 250 50 0 empty empty empty 17 7 0 10 -259739
-1 -262144;
#X obj 123 805 color.rgb2pd24;
#X msg 123 827 color \$1;
#X floatatom 26 536 5 0 0 0 - - -;
#X floatatom 129 553 8 0 0 0 - - -;
#X obj 713 1003 sendOSC;
#X obj 872 902 loadbang;
#X msg 891 946 disconnect;
#X msg 872 924 connect plus 9051;
#X floatatom 925 694 5 0 0 0 mode - -;
#X floatatom 739 658 5 0 1 0 R - -;
#X floatatom 786 660 5 0 1 0 G - -;
#X floatatom 841 659 5 0 1 0 B - -;
#X obj 731 679 bng 15 250 50 0 empty empty empty 17 7 0 10 -262144
-1 -1;
#X obj 923 715 / 255;
#X obj 676 619 / 255;
#X obj 798 619 / 255;
#X obj 924 620 / 255;
#X floatatom 661 312 5 0 0 0 hue - -;
#X obj 97 213 ctlin;
#X floatatom 62 245 5 0 0 3 value - -;
#X floatatom 104 246 5 0 0 3 ctl_num - -;
#X floatatom 155 246 5 0 0 3 chan - -;
#X obj 660 289 / 127;
#X msg 924 673 214;
#X obj 924 652 loadbang;
#X floatatom 732 314 5 0 0 0 - - -;
#X obj 732 289 / 127;
#X obj 731 269 ctlin 82 1;
#X msg 677 545 goto \$1 \$2;
#X obj 662 476 * 255;
#X obj 732 474 * 48;
#X obj 677 523 pack f f;
#X obj 689 500 t b f;
#X obj 760 695 pack f f f;
#X obj 659 269 ctlin 81 1;
#X text 479 665 Peak;
#X obj 661 335 vsl 15 128 0 1 0 0 empty empty empty 0 -9 0 10 -262144
-1 -1 0 1;
#X obj 731 335 vsl 15 128 0 1 0 0 empty empty empty 0 -9 0 10 -262144
-1 -1 0 1;
#X obj 605 743 spigot;
#X obj 710 780 output-color-to-dmx;
#X msg 701 753 87;
#X obj 696 727 loadbang;
#X obj 658 234 mknob 25 100 0 127 0 0 empty empty empty -2 -6 0 8 -262144
-1 -1 3500 1;
#X obj 10 1054 spectrogram~;
#X obj 37 305 mat~;
#X obj 85 293 vsl 15 128 0 127 0 0 empty empty level 0 -9 0 10 -262144
-1 -1 12700 1;
#X obj 131 523 dbtorms;
#X obj 189 681 / 2;
#X obj 194 554 hsl 120 15 0 5 0 0 empty empty scl -2 -8 0 10 -262144
-1 -1 776 1;
#X obj 146 591 *;
#X text 484 666;
#X obj 54 458 biquad~;
#X obj 272 617 sig~;
#X floatatom 353 327 0 0 0 0 - - -;
#X floatatom 444 327 0 0 0 0 - - -;
#X obj 449 359 trigger bang float;
#X obj 354 282 hsl 128 17 1 500 1 1 empty empty frequency 5 9 0 10
-203904 -1 -1 4800 0;
#X obj 447 305 hsl 128 17 0 100 0 1 empty empty bandwidth 5 9 0 10
-261682 -1 -1 1800 0;
#X obj 353 393 lowpass;
#X obj 135 462 rampsmooth~ 100000 100000;
#X floatatom 317 425 5 0 0 0 ms_to_ramp - -;
#X obj 322 491 pack f f;
#X msg 339 525 ramp \$1;
#X obj 319 456 * 44.1;
#X connect 0 0 66 0;
#X connect 0 0 67 0;
#X connect 2 0 3 0;
#X connect 2 0 69 0;
#X connect 3 0 1 0;
#X connect 3 0 25 0;
#X connect 4 0 21 0;
#X connect 4 1 20 0;
#X connect 4 2 19 0;
#X connect 12 0 37 0;
#X connect 12 1 38 0;
#X connect 12 2 39 0;
#X connect 13 0 23 0;
#X connect 14 0 17 0;
#X connect 14 0 18 0;
#X connect 15 0 17 1;
#X connect 15 0 18 0;
#X connect 16 0 17 2;
#X connect 16 0 18 0;
#X connect 17 0 13 0;
#X connect 18 0 17 0;
#X connect 23 0 24 0;
#X connect 24 0 22 0;
#X connect 26 0 72 0;
#X connect 28 0 30 0;
#X connect 29 0 27 0;
#X connect 30 0 27 0;
#X connect 31 0 36 0;
#X connect 32 0 35 0;
#X connect 32 0 56 0;
#X connect 33 0 35 0;
#X connect 33 0 56 1;
#X connect 34 0 35 0;
#X connect 34 0 56 2;
#X connect 35 0 56 0;
#X connect 36 0 62 2;
#X connect 37 0 32 0;
#X connect 38 0 33 0;
#X connect 39 0 34 0;
#X connect 40 0 59 0;
#X connect 41 0 42 0;
#X connect 41 1 43 0;
#X connect 41 2 44 0;
#X connect 45 0 40 0;
#X connect 46 0 31 0;
#X connect 47 0 46 0;
#X connect 48 0 60 0;
#X connect 49 0 48 0;
#X connect 50 0 49 0;
#X connect 51 0 12 0;
#X connect 52 0 54 0;
#X connect 53 0 55 0;
#X connect 54 0 51 0;
#X connect 55 0 54 0;
#X connect 55 1 54 1;
#X connect 56 0 62 1;
#X connect 57 0 45 0;
#X connect 59 0 52 0;
#X connect 60 0 53 0;
#X connect 62 0 27 0;
#X connect 63 0 62 0;
#X connect 64 0 63 0;
#X connect 67 0 74 0;
#X connect 67 0 82 0;
#X connect 68 0 67 2;
#X connect 69 0 26 0;
#X connect 70 0 16 0;
#X connect 71 0 72 1;
#X connect 72 0 70 0;
#X connect 72 0 75 0;
#X connect 76 0 81 0;
#X connect 77 0 78 0;
#X connect 78 0 81 0;
#X connect 78 1 81 1;
#X connect 79 0 76 0;
#X connect 80 0 77 0;
#X connect 81 0 74 0;
#X connect 82 0 2 0;
#X connect 83 0 86 0;
#X connect 84 0 85 0;
#X connect 85 0 82 0;
#X connect 86 0 84 0;
#X connect 86 0 84 1;
#X coords 0 1599 1 1598 85 60 0;
