#N canvas 244 377 1073 651 10;
#X obj 64 13 mknob 25 100 0 127 0 0 s1-out s1-in s1 -2 -6 1 8 -262144
-1 -1 0 1;
#X obj 295 28 r s1-out;
#X floatatom 295 50 5 0 0 0 - - -;
#X floatatom 287 135 5 0 0 0 - - -;
#X obj 22 71 adc~;
#X symbolatom 216 175 10 0 0 0 - - -;
#X obj 20 147 vu 15 120 raw empty -1 -8 0 10 -66577 -1 1 0;
#X obj 282 90 s raw;
#X obj 23 94 env~;
#X obj 22 118 - 100;
#X obj 40 516 colorgrid colorgrid1 256 0 256 50 0 50 0 1 1 10 10 224
549;
#X text 393 107 bonk~;
#X text 382 123 gcanvas;
#X text 364 140 highpass;
#X text 361 165 lowpass;
#X text 358 197 color.rgbset;
#X text 365 228 httpreq;
#X text 355 260 spectrogram~;
#X text 68 463 left LED;
#X obj 587 511 colorgrid colorgrid1 256 0 256 50 0 50 0 1 1 10 10 642
563;
#X obj 667 163 colorgrid colorgrid1 256 0 256 50 0 50 0 1 1 10 10 820
140;
#X text 739 401 middle LED;
#X text 590 482 right LED;
#X obj 121 385 color.hsl2rgb;
#X floatatom 86 296 5 0 0 0 - - -;
#X floatatom 143 303 5 0 0 0 - - -;
#X floatatom 207 303 5 0 0 0 - - -;
#X obj 121 332 pack f f f;
#X obj 76 344 bng 15 250 50 0 empty empty empty 17 7 0 10 -262144 -1
-1;
#X floatatom 278 591 5 0 0 0 - - -;
#X floatatom 160 588 5 0 0 0 - - -;
#X floatatom 39 592 5 0 0 0 - - -;
#X obj 122 452 bng 50 250 50 0 empty empty empty 17 7 0 10 -196545
-1 -262144;
#X obj 121 407 color.rgb2pd24;
#X msg 121 429 color \$1;
#X floatatom 66 143 5 0 0 0 - - -;
#X obj 129 125 dbtopow;
#X floatatom 129 155 8 0 0 0 - - -;
#X obj 648 438 sendOSC;
#X obj 580 358 loadbang;
#X msg 599 402 disconnect;
#X msg 580 380 connect plus 9051;
#X msg 95 -4;
#X floatatom 879 285 5 0 0 0 mode - -;
#X obj 729 469 print;
#X floatatom 684 301 5 0 0 0 R - -;
#X floatatom 741 308 5 0 0 0 G - -;
#X floatatom 805 308 5 0 0 0 B - -;
#X obj 697 353 bng 15 250 50 0 empty empty empty 17 7 0 10 -262144
-1 -1;
#X obj 880 334 / 255;
#X obj 720 363 pack f f f f;
#X msg 720 386 send /dmx/87 \$1 \$2 \$3 \$4;
#X obj 688 242 / 255;
#X obj 774 245 / 255;
#X obj 875 244 / 255;
#X floatatom 687 117 5 0 0 0 - - -;
#X obj 376 535 ctlin;
#X floatatom 341 567 5 0 0 3 value - -;
#X floatatom 383 568 5 0 0 3 ctl_num - -;
#X floatatom 434 568 5 0 0 3 chan - -;
#X obj 683 28 ctlin 81 1;
#X obj 683 80 / 127;
#X msg 922 275 214;
#X obj 937 252 loadbang;
#X connect 1 0 2 0;
#X connect 4 0 8 0;
#X connect 8 0 9 0;
#X connect 8 0 36 0;
#X connect 9 0 6 0;
#X connect 9 0 35 0;
#X connect 10 0 31 0;
#X connect 10 1 30 0;
#X connect 10 2 29 0;
#X connect 20 0 52 0;
#X connect 20 1 53 0;
#X connect 20 2 54 0;
#X connect 23 0 33 0;
#X connect 24 0 27 0;
#X connect 25 0 27 1;
#X connect 26 0 27 2;
#X connect 27 0 23 0;
#X connect 28 0 23 0;
#X connect 33 0 34 0;
#X connect 34 0 32 0;
#X connect 36 0 37 0;
#X connect 39 0 41 0;
#X connect 40 0 38 0;
#X connect 41 0 38 0;
#X connect 43 0 49 0;
#X connect 45 0 50 1;
#X connect 45 0 48 0;
#X connect 46 0 48 0;
#X connect 46 0 50 2;
#X connect 47 0 48 0;
#X connect 47 0 50 3;
#X connect 48 0 50 0;
#X connect 49 0 50 0;
#X connect 50 0 51 0;
#X connect 51 0 38 0;
#X connect 52 0 45 0;
#X connect 53 0 46 0;
#X connect 54 0 47 0;
#X connect 56 0 57 0;
#X connect 56 1 58 0;
#X connect 56 2 59 0;
#X connect 60 0 61 0;
#X connect 61 0 55 0;
#X connect 62 0 43 0;
#X connect 63 0 62 0;
#X coords 0 651 1 650 85 60 0;
